<?xml version="1.0" standalone="no"?>
<!DOCTYPE svg PUBLIC "-//W3C//DTD SVG 20010904//EN"
 "http://www.w3.org/TR/2001/REC-SVG-20010904/DTD/svg10.dtd">
<svg version="1.0" xmlns="http://www.w3.org/2000/svg"
 width="512.000000pt" height="512.000000pt" viewBox="0 0 512.000000 512.000000"
 preserveAspectRatio="xMidYMid meet">
<metadata>
Created by potrace 1.11, written by Peter Selinger 2001-2013
</metadata>
<g transform="translate(0.000000,512.000000) scale(0.100000,-0.100000)"
fill="#000000" stroke="none">
<path d="M909 4770 c-46 -13 -78 -41 -99 -84 -20 -42 -20 -46 -20 -2124 0
-1736 2 -2088 14 -2115 17 -42 66 -83 114 -97 51 -14 3253 -14 3304 0 54 15
94 54 112 108 14 42 16 208 14 1582 l-3 1535 -487 3 -488 2 0 600 0 600 -1217
-1 c-670 0 -1230 -4 -1244 -9z m2959 -1722 l3 -108 -1301 0 -1300 0 0 110 0
110 1298 -2 1297 -3 3 -107z m2 -628 l0 -110 -1300 0 -1300 0 0 110 0 110
1300 0 1300 0 0 -110z m0 -620 l0 -110 -1300 0 -1300 0 0 110 0 110 1300 0
1300 0 0 -110z m-1300 -625 l0 -105 -650 0 -650 0 0 105 0 105 650 0 650 0 0
-105z"/>
</g>
</svg>
